# xmcd CD database file
#
# Track frame offsets:
#	150
#	12262
#	27862
#	42964
#	69163
#	82868
#	103801
#	123631
#	140228
#	157144
#	176117
#	191009
#	210931
#
# Disc length: 3100 seconds
#
# Revision: 0
# Processed by: cddbd v1.5PL3 Copyright (c) Steve Scherf et al.
# Submitted via: CDex 1.51
#
DISCID=b20c1a0d
DTITLE=Sojiro - Ocarina ETUDE 5 (Screen Music)
DYEAR=2003
DGENRE=New Age
TTITLE0=Infanzia E Maturita
TTITLE1=Unchained Melody
TTITLE2=Chinese Title
TTITLE3=Chinese Title
TTITLE4=Tara¡'S Theme
TTITLE5=My Heart Will Go On
TTITLE6=Now we are Free
TTITLE7=The Rose
TTITLE8=May It Be
TTITLE9=Melody Fair
TTITLE10=Moon River
TTITLE11=Chinese Title
TTITLE12=When you Wish Upon a Star
EXTD=YEAR: 2003
EXTT0=
EXTT1=
EXTT2=
EXTT3=
EXTT4=
EXTT5=
EXTT6=
EXTT7=
EXTT8=
EXTT9=
EXTT10=
EXTT11=
EXTT12=
PLAYORDER=
